<!--?xml version="1.0" encoding="utf-8"?-->
<!-- Generator: Adobe Illustrator 18.1.1, SVG Export Plug-In . SVG Version: 6.00 Build 0)  -->

<svg version="1.1" id="_x32_" xmlns="http://www.w3.org/2000/svg" xmlns:xlink="http://www.w3.org/1999/xlink" x="0px" y="0px" viewBox="0 0 512 512" style="width: 128px; height: 128px; opacity: 1;" xml:space="preserve">
<style type="text/css">
	.st0{fill:#4B4B4B;}
</style>
<g>
	<path class="st0" d="M452.709,293.727c0,0,58.751,1.142,59.288-88.927c0.536-90.061-59.288-88.92-59.288-88.92H194.021v204.797
		c0,0,0.623,16.493-64.668,16.164c-65.298-0.337-64.676-16.164-64.676-16.164v-86.23H0v107.021c0,0,0.459,54.496,129.353,54.652
		c128.877,0.165,129.336-57.126,129.336-57.126V180.548h172.467c0,0,15.412,0.078,16.165,26.95
		c0.761,26.871-16.165,26.949-16.165,26.949H301.812l129.344,161.674h80.841l-80.841-102.394H452.709z" style="fill: rgb(0, 105, 255);"></path>
</g>
</svg>
